<?xml version="1.0" encoding="utf-8" standalone="no"?>
<!DOCTYPE svg PUBLIC "-//W3C//DTD SVG 1.1//EN"
  "http://www.w3.org/Graphics/SVG/1.1/DTD/svg11.dtd">
<svg xmlns:xlink="http://www.w3.org/1999/xlink" width="969.315312pt" height="734.960938pt" viewBox="0 0 969.315312 734.960938" xmlns="http://www.w3.org/2000/svg" version="1.1">
 <metadata>
  <rdf:RDF xmlns:dc="http://purl.org/dc/elements/1.1/" xmlns:cc="http://creativecommons.org/ns#" xmlns:rdf="http://www.w3.org/1999/02/22-rdf-syntax-ns#">
   <cc:Work>
    <dc:type rdf:resource="http://purl.org/dc/dcmitype/StillImage"/>
    <dc:date>2025-12-11T22:29:26.161120</dc:date>
    <dc:format>image/svg+xml</dc:format>
    <dc:creator>
     <cc:Agent>
      <dc:title>Matplotlib v3.10.1, https://matplotlib.org/</dc:title>
     </cc:Agent>
    </dc:creator>
   </cc:Work>
  </rdf:RDF>
 </metadata>
 <defs>
  <style type="text/css">*{stroke-linejoin: round; stroke-linecap: butt}</style>
 </defs>
 <g id="figure_1">
  <g id="patch_1">
   <path d="M 0 734.960938 
L 969.315312 734.960938 
L 969.315312 0 
L 0 0 
z
" style="fill: #ffffff"/>
  </g>
  <g id="axes_1">
   <g id="patch_2">
    <path d="M 69.315313 672.48 
L 962.115312 672.48 
L 962.115312 7.2 
L 69.315313 7.2 
z
" style="fill: #eaeaf2"/>
   </g>
   <g id="matplotlib.axis_1">
    <g id="xtick_1">
     <g id="line2d_1">
      <path d="M 109.897131 672.48 
L 109.897131 7.2 
" clip-path="url(#p9908739fb9)" style="fill: none; stroke: #ffffff; stroke-linecap: round"/>
     </g>
     <g id="text_1">
      <!-- 0.0 -->
      <g style="fill: #262626" transform="translate(97.397131 695.8675) scale(0.2 -0.2)">
       <defs>
        <path id="TimesNewRomanPSMT-30" d="M 231 2094 
Q 231 2819 450 3342 
Q 669 3866 1031 4122 
Q 1313 4325 1613 4325 
Q 2100 4325 2488 3828 
Q 2972 3213 2972 2159 
Q 2972 1422 2759 906 
Q 2547 391 2217 158 
Q 1888 -75 1581 -75 
Q 975 -75 572 641 
Q 231 1244 231 2094 
z
M 844 2016 
Q 844 1141 1059 588 
Q 1238 122 1591 122 
Q 1759 122 1940 273 
Q 2122 425 2216 781 
Q 2359 1319 2359 2297 
Q 2359 3022 2209 3506 
Q 2097 3866 1919 4016 
Q 1791 4119 1609 4119 
Q 1397 4119 1231 3928 
Q 1006 3669 925 3112 
Q 844 2556 844 2016 
z
" transform="scale(0.015625)"/>
        <path id="TimesNewRomanPSMT-2e" d="M 800 606 
Q 947 606 1047 504 
Q 1147 403 1147 259 
Q 1147 116 1045 14 
Q 944 -88 800 -88 
Q 656 -88 554 14 
Q 453 116 453 259 
Q 453 406 554 506 
Q 656 606 800 606 
z
" transform="scale(0.015625)"/>
       </defs>
       <use xlink:href="#TimesNewRomanPSMT-30"/>
       <use xlink:href="#TimesNewRomanPSMT-2e" transform="translate(50 0)"/>
       <use xlink:href="#TimesNewRomanPSMT-30" transform="translate(75 0)"/>
      </g>
     </g>
    </g>
    <g id="xtick_2">
     <g id="line2d_2">
      <path d="M 272.224403 672.48 
L 272.224403 7.2 
" clip-path="url(#p9908739fb9)" style="fill: none; stroke: #ffffff; stroke-linecap: round"/>
     </g>
     <g id="text_2">
      <!-- 0.2 -->
      <g style="fill: #262626" transform="translate(259.724403 695.8675) scale(0.2 -0.2)">
       <defs>
        <path id="TimesNewRomanPSMT-32" d="M 2934 816 
L 2638 0 
L 138 0 
L 138 116 
Q 1241 1122 1691 1759 
Q 2141 2397 2141 2925 
Q 2141 3328 1894 3587 
Q 1647 3847 1303 3847 
Q 991 3847 742 3664 
Q 494 3481 375 3128 
L 259 3128 
Q 338 3706 661 4015 
Q 984 4325 1469 4325 
Q 1984 4325 2329 3994 
Q 2675 3663 2675 3213 
Q 2675 2891 2525 2569 
Q 2294 2063 1775 1497 
Q 997 647 803 472 
L 1909 472 
Q 2247 472 2383 497 
Q 2519 522 2628 598 
Q 2738 675 2819 816 
L 2934 816 
z
" transform="scale(0.015625)"/>
       </defs>
       <use xlink:href="#TimesNewRomanPSMT-30"/>
       <use xlink:href="#TimesNewRomanPSMT-2e" transform="translate(50 0)"/>
       <use xlink:href="#TimesNewRomanPSMT-32" transform="translate(75 0)"/>
      </g>
     </g>
    </g>
    <g id="xtick_3">
     <g id="line2d_3">
      <path d="M 434.551676 672.48 
L 434.551676 7.2 
" clip-path="url(#p9908739fb9)" style="fill: none; stroke: #ffffff; stroke-linecap: round"/>
     </g>
     <g id="text_3">
      <!-- 0.4 -->
      <g style="fill: #262626" transform="translate(422.051676 695.8675) scale(0.2 -0.2)">
       <defs>
        <path id="TimesNewRomanPSMT-34" d="M 2978 1563 
L 2978 1119 
L 2409 1119 
L 2409 0 
L 1894 0 
L 1894 1119 
L 100 1119 
L 100 1519 
L 2066 4325 
L 2409 4325 
L 2409 1563 
L 2978 1563 
z
M 1894 1563 
L 1894 3666 
L 406 1563 
L 1894 1563 
z
" transform="scale(0.015625)"/>
       </defs>
       <use xlink:href="#TimesNewRomanPSMT-30"/>
       <use xlink:href="#TimesNewRomanPSMT-2e" transform="translate(50 0)"/>
       <use xlink:href="#TimesNewRomanPSMT-34" transform="translate(75 0)"/>
      </g>
     </g>
    </g>
    <g id="xtick_4">
     <g id="line2d_4">
      <path d="M 596.878949 672.48 
L 596.878949 7.2 
" clip-path="url(#p9908739fb9)" style="fill: none; stroke: #ffffff; stroke-linecap: round"/>
     </g>
     <g id="text_4">
      <!-- 0.6 -->
      <g style="fill: #262626" transform="translate(584.378949 695.8675) scale(0.2 -0.2)">
       <defs>
        <path id="TimesNewRomanPSMT-36" d="M 2869 4325 
L 2869 4209 
Q 2456 4169 2195 4045 
Q 1934 3922 1679 3669 
Q 1425 3416 1258 3105 
Q 1091 2794 978 2366 
Q 1428 2675 1881 2675 
Q 2316 2675 2634 2325 
Q 2953 1975 2953 1425 
Q 2953 894 2631 456 
Q 2244 -75 1606 -75 
Q 1172 -75 869 213 
Q 275 772 275 1663 
Q 275 2231 503 2743 
Q 731 3256 1154 3653 
Q 1578 4050 1965 4187 
Q 2353 4325 2688 4325 
L 2869 4325 
z
M 925 2138 
Q 869 1716 869 1456 
Q 869 1156 980 804 
Q 1091 453 1309 247 
Q 1469 100 1697 100 
Q 1969 100 2183 356 
Q 2397 613 2397 1088 
Q 2397 1622 2184 2012 
Q 1972 2403 1581 2403 
Q 1463 2403 1327 2353 
Q 1191 2303 925 2138 
z
" transform="scale(0.015625)"/>
       </defs>
       <use xlink:href="#TimesNewRomanPSMT-30"/>
       <use xlink:href="#TimesNewRomanPSMT-2e" transform="translate(50 0)"/>
       <use xlink:href="#TimesNewRomanPSMT-36" transform="translate(75 0)"/>
      </g>
     </g>
    </g>
    <g id="xtick_5">
     <g id="line2d_5">
      <path d="M 759.206222 672.48 
L 759.206222 7.2 
" clip-path="url(#p9908739fb9)" style="fill: none; stroke: #ffffff; stroke-linecap: round"/>
     </g>
     <g id="text_5">
      <!-- 0.8 -->
      <g style="fill: #262626" transform="translate(746.706222 695.8675) scale(0.2 -0.2)">
       <defs>
        <path id="TimesNewRomanPSMT-38" d="M 1228 2134 
Q 725 2547 579 2797 
Q 434 3047 434 3316 
Q 434 3728 753 4026 
Q 1072 4325 1600 4325 
Q 2113 4325 2425 4047 
Q 2738 3769 2738 3413 
Q 2738 3175 2569 2928 
Q 2400 2681 1866 2347 
Q 2416 1922 2594 1678 
Q 2831 1359 2831 1006 
Q 2831 559 2490 242 
Q 2150 -75 1597 -75 
Q 994 -75 656 303 
Q 388 606 388 966 
Q 388 1247 577 1523 
Q 766 1800 1228 2134 
z
M 1719 2469 
Q 2094 2806 2194 3001 
Q 2294 3197 2294 3444 
Q 2294 3772 2109 3958 
Q 1925 4144 1606 4144 
Q 1288 4144 1088 3959 
Q 888 3775 888 3528 
Q 888 3366 970 3203 
Q 1053 3041 1206 2894 
L 1719 2469 
z
M 1375 2016 
Q 1116 1797 991 1539 
Q 866 1281 866 981 
Q 866 578 1086 336 
Q 1306 94 1647 94 
Q 1984 94 2187 284 
Q 2391 475 2391 747 
Q 2391 972 2272 1150 
Q 2050 1481 1375 2016 
z
" transform="scale(0.015625)"/>
       </defs>
       <use xlink:href="#TimesNewRomanPSMT-30"/>
       <use xlink:href="#TimesNewRomanPSMT-2e" transform="translate(50 0)"/>
       <use xlink:href="#TimesNewRomanPSMT-38" transform="translate(75 0)"/>
      </g>
     </g>
    </g>
    <g id="xtick_6">
     <g id="line2d_6">
      <path d="M 921.533494 672.48 
L 921.533494 7.2 
" clip-path="url(#p9908739fb9)" style="fill: none; stroke: #ffffff; stroke-linecap: round"/>
     </g>
     <g id="text_6">
      <!-- 1.0 -->
      <g style="fill: #262626" transform="translate(909.033494 695.8675) scale(0.2 -0.2)">
       <defs>
        <path id="TimesNewRomanPSMT-31" d="M 750 3822 
L 1781 4325 
L 1884 4325 
L 1884 747 
Q 1884 391 1914 303 
Q 1944 216 2037 169 
Q 2131 122 2419 116 
L 2419 0 
L 825 0 
L 825 116 
Q 1125 122 1212 167 
Q 1300 213 1334 289 
Q 1369 366 1369 747 
L 1369 3034 
Q 1369 3497 1338 3628 
Q 1316 3728 1258 3775 
Q 1200 3822 1119 3822 
Q 1003 3822 797 3725 
L 750 3822 
z
" transform="scale(0.015625)"/>
       </defs>
       <use xlink:href="#TimesNewRomanPSMT-31"/>
       <use xlink:href="#TimesNewRomanPSMT-2e" transform="translate(50 0)"/>
       <use xlink:href="#TimesNewRomanPSMT-30" transform="translate(75 0)"/>
      </g>
     </g>
    </g>
    <g id="text_7">
     <!-- False Positive Rate -->
     <g style="fill: #262626" transform="translate(416.054062 722.199375) scale(0.26 -0.26)">
      <defs>
       <path id="TimesNewRomanPSMT-46" d="M 1309 4006 
L 1309 2341 
L 2081 2341 
Q 2347 2341 2470 2458 
Q 2594 2575 2634 2922 
L 2750 2922 
L 2750 1488 
L 2634 1488 
Q 2631 1734 2570 1850 
Q 2509 1966 2401 2023 
Q 2294 2081 2081 2081 
L 1309 2081 
L 1309 750 
Q 1309 428 1350 325 
Q 1381 247 1481 191 
Q 1619 116 1769 116 
L 1922 116 
L 1922 0 
L 103 0 
L 103 116 
L 253 116 
Q 516 116 634 269 
Q 709 369 709 750 
L 709 3488 
Q 709 3809 669 3913 
Q 638 3991 541 4047 
Q 406 4122 253 4122 
L 103 4122 
L 103 4238 
L 3256 4238 
L 3297 3306 
L 3188 3306 
Q 3106 3603 2998 3742 
Q 2891 3881 2733 3943 
Q 2575 4006 2244 4006 
L 1309 4006 
z
" transform="scale(0.015625)"/>
       <path id="TimesNewRomanPSMT-61" d="M 1822 413 
Q 1381 72 1269 19 
Q 1100 -59 909 -59 
Q 613 -59 420 144 
Q 228 347 228 678 
Q 228 888 322 1041 
Q 450 1253 767 1440 
Q 1084 1628 1822 1897 
L 1822 2009 
Q 1822 2438 1686 2597 
Q 1550 2756 1291 2756 
Q 1094 2756 978 2650 
Q 859 2544 859 2406 
L 866 2225 
Q 866 2081 792 2003 
Q 719 1925 600 1925 
Q 484 1925 411 2006 
Q 338 2088 338 2228 
Q 338 2497 613 2722 
Q 888 2947 1384 2947 
Q 1766 2947 2009 2819 
Q 2194 2722 2281 2516 
Q 2338 2381 2338 1966 
L 2338 994 
Q 2338 584 2353 492 
Q 2369 400 2405 369 
Q 2441 338 2488 338 
Q 2538 338 2575 359 
Q 2641 400 2828 588 
L 2828 413 
Q 2478 -56 2159 -56 
Q 2006 -56 1915 50 
Q 1825 156 1822 413 
z
M 1822 616 
L 1822 1706 
Q 1350 1519 1213 1441 
Q 966 1303 859 1153 
Q 753 1003 753 825 
Q 753 600 887 451 
Q 1022 303 1197 303 
Q 1434 303 1822 616 
z
" transform="scale(0.015625)"/>
       <path id="TimesNewRomanPSMT-6c" d="M 1184 4444 
L 1184 647 
Q 1184 378 1223 290 
Q 1263 203 1344 158 
Q 1425 113 1647 113 
L 1647 0 
L 244 0 
L 244 113 
Q 441 113 512 153 
Q 584 194 625 287 
Q 666 381 666 647 
L 666 3247 
Q 666 3731 644 3842 
Q 622 3953 573 3993 
Q 525 4034 450 4034 
Q 369 4034 244 3984 
L 191 4094 
L 1044 4444 
L 1184 4444 
z
" transform="scale(0.015625)"/>
       <path id="TimesNewRomanPSMT-73" d="M 2050 2947 
L 2050 1972 
L 1947 1972 
Q 1828 2431 1642 2597 
Q 1456 2763 1169 2763 
Q 950 2763 815 2647 
Q 681 2531 681 2391 
Q 681 2216 781 2091 
Q 878 1963 1175 1819 
L 1631 1597 
Q 2266 1288 2266 781 
Q 2266 391 1970 151 
Q 1675 -88 1309 -88 
Q 1047 -88 709 6 
Q 606 38 541 38 
Q 469 38 428 -44 
L 325 -44 
L 325 978 
L 428 978 
Q 516 541 762 319 
Q 1009 97 1316 97 
Q 1531 97 1667 223 
Q 1803 350 1803 528 
Q 1803 744 1651 891 
Q 1500 1038 1047 1263 
Q 594 1488 453 1669 
Q 313 1847 313 2119 
Q 313 2472 555 2709 
Q 797 2947 1181 2947 
Q 1350 2947 1591 2875 
Q 1750 2828 1803 2828 
Q 1853 2828 1881 2850 
Q 1909 2872 1947 2947 
L 2050 2947 
z
" transform="scale(0.015625)"/>
       <path id="TimesNewRomanPSMT-65" d="M 681 1784 
Q 678 1147 991 784 
Q 1303 422 1725 422 
Q 2006 422 2214 576 
Q 2422 731 2563 1106 
L 2659 1044 
Q 2594 616 2278 264 
Q 1963 -88 1488 -88 
Q 972 -88 605 314 
Q 238 716 238 1394 
Q 238 2128 614 2539 
Q 991 2950 1559 2950 
Q 2041 2950 2350 2633 
Q 2659 2316 2659 1784 
L 681 1784 
z
M 681 1966 
L 2006 1966 
Q 1991 2241 1941 2353 
Q 1863 2528 1708 2628 
Q 1553 2728 1384 2728 
Q 1125 2728 920 2526 
Q 716 2325 681 1966 
z
" transform="scale(0.015625)"/>
       <path id="TimesNewRomanPSMT-20" transform="scale(0.015625)"/>
       <path id="TimesNewRomanPSMT-50" d="M 1313 1984 
L 1313 750 
Q 1313 350 1400 253 
Q 1519 116 1759 116 
L 1922 116 
L 1922 0 
L 106 0 
L 106 116 
L 266 116 
Q 534 116 650 291 
Q 713 388 713 750 
L 713 3488 
Q 713 3888 628 3984 
Q 506 4122 266 4122 
L 106 4122 
L 106 4238 
L 1659 4238 
Q 2228 4238 2556 4120 
Q 2884 4003 3109 3725 
Q 3334 3447 3334 3066 
Q 3334 2547 2992 2222 
Q 2650 1897 2025 1897 
Q 1872 1897 1694 1919 
Q 1516 1941 1313 1984 
z
M 1313 2163 
Q 1478 2131 1606 2115 
Q 1734 2100 1825 2100 
Q 2150 2100 2386 2351 
Q 2622 2603 2622 3003 
Q 2622 3278 2509 3514 
Q 2397 3750 2190 3867 
Q 1984 3984 1722 3984 
Q 1563 3984 1313 3925 
L 1313 2163 
z
" transform="scale(0.015625)"/>
       <path id="TimesNewRomanPSMT-6f" d="M 1600 2947 
Q 2250 2947 2644 2453 
Q 2978 2031 2978 1484 
Q 2978 1100 2793 706 
Q 2609 313 2286 112 
Q 1963 -88 1566 -88 
Q 919 -88 538 428 
Q 216 863 216 1403 
Q 216 1797 411 2186 
Q 606 2575 925 2761 
Q 1244 2947 1600 2947 
z
M 1503 2744 
Q 1338 2744 1170 2645 
Q 1003 2547 900 2300 
Q 797 2053 797 1666 
Q 797 1041 1045 587 
Q 1294 134 1700 134 
Q 2003 134 2200 384 
Q 2397 634 2397 1244 
Q 2397 2006 2069 2444 
Q 1847 2744 1503 2744 
z
" transform="scale(0.015625)"/>
       <path id="TimesNewRomanPSMT-69" d="M 928 4444 
Q 1059 4444 1151 4351 
Q 1244 4259 1244 4128 
Q 1244 3997 1151 3903 
Q 1059 3809 928 3809 
Q 797 3809 703 3903 
Q 609 3997 609 4128 
Q 609 4259 701 4351 
Q 794 4444 928 4444 
z
M 1188 2947 
L 1188 647 
Q 1188 378 1227 289 
Q 1266 200 1342 156 
Q 1419 113 1622 113 
L 1622 0 
L 231 0 
L 231 113 
Q 441 113 512 153 
Q 584 194 626 287 
Q 669 381 669 647 
L 669 1750 
Q 669 2216 641 2353 
Q 619 2453 572 2492 
Q 525 2531 444 2531 
Q 356 2531 231 2484 
L 188 2597 
L 1050 2947 
L 1188 2947 
z
" transform="scale(0.015625)"/>
       <path id="TimesNewRomanPSMT-74" d="M 1031 3803 
L 1031 2863 
L 1700 2863 
L 1700 2644 
L 1031 2644 
L 1031 788 
Q 1031 509 1111 412 
Q 1191 316 1316 316 
Q 1419 316 1516 380 
Q 1613 444 1666 569 
L 1788 569 
Q 1678 263 1478 108 
Q 1278 -47 1066 -47 
Q 922 -47 784 33 
Q 647 113 581 261 
Q 516 409 516 719 
L 516 2644 
L 63 2644 
L 63 2747 
Q 234 2816 414 2980 
Q 594 3144 734 3369 
Q 806 3488 934 3803 
L 1031 3803 
z
" transform="scale(0.015625)"/>
       <path id="TimesNewRomanPSMT-76" d="M 53 2863 
L 1400 2863 
L 1400 2747 
L 1313 2747 
Q 1191 2747 1127 2687 
Q 1063 2628 1063 2528 
Q 1063 2419 1128 2269 
L 1794 688 
L 2463 2328 
Q 2534 2503 2534 2594 
Q 2534 2638 2509 2666 
Q 2475 2713 2422 2730 
Q 2369 2747 2206 2747 
L 2206 2863 
L 3141 2863 
L 3141 2747 
Q 2978 2734 2916 2681 
Q 2806 2588 2719 2369 
L 1703 -88 
L 1575 -88 
L 553 2328 
Q 484 2497 421 2570 
Q 359 2644 263 2694 
Q 209 2722 53 2747 
L 53 2863 
z
" transform="scale(0.015625)"/>
       <path id="TimesNewRomanPSMT-52" d="M 4325 0 
L 3194 0 
L 1759 1981 
Q 1600 1975 1500 1975 
Q 1459 1975 1412 1976 
Q 1366 1978 1316 1981 
L 1316 750 
Q 1316 350 1403 253 
Q 1522 116 1759 116 
L 1925 116 
L 1925 0 
L 109 0 
L 109 116 
L 269 116 
Q 538 116 653 291 
Q 719 388 719 750 
L 719 3488 
Q 719 3888 631 3984 
Q 509 4122 269 4122 
L 109 4122 
L 109 4238 
L 1653 4238 
Q 2328 4238 2648 4139 
Q 2969 4041 3192 3777 
Q 3416 3513 3416 3147 
Q 3416 2756 3161 2468 
Q 2906 2181 2372 2063 
L 3247 847 
Q 3547 428 3762 290 
Q 3978 153 4325 116 
L 4325 0 
z
M 1316 2178 
Q 1375 2178 1419 2176 
Q 1463 2175 1491 2175 
Q 2097 2175 2405 2437 
Q 2713 2700 2713 3106 
Q 2713 3503 2464 3751 
Q 2216 4000 1806 4000 
Q 1625 4000 1316 3941 
L 1316 2178 
z
" transform="scale(0.015625)"/>
      </defs>
      <use xlink:href="#TimesNewRomanPSMT-46"/>
      <use xlink:href="#TimesNewRomanPSMT-61" transform="translate(55.615234 0)"/>
      <use xlink:href="#TimesNewRomanPSMT-6c" transform="translate(100 0)"/>
      <use xlink:href="#TimesNewRomanPSMT-73" transform="translate(127.783203 0)"/>
      <use xlink:href="#TimesNewRomanPSMT-65" transform="translate(166.699219 0)"/>
      <use xlink:href="#TimesNewRomanPSMT-20" transform="translate(211.083984 0)"/>
      <use xlink:href="#TimesNewRomanPSMT-50" transform="translate(236.083984 0)"/>
      <use xlink:href="#TimesNewRomanPSMT-6f" transform="translate(291.699219 0)"/>
      <use xlink:href="#TimesNewRomanPSMT-73" transform="translate(341.699219 0)"/>
      <use xlink:href="#TimesNewRomanPSMT-69" transform="translate(380.615234 0)"/>
      <use xlink:href="#TimesNewRomanPSMT-74" transform="translate(408.398438 0)"/>
      <use xlink:href="#TimesNewRomanPSMT-69" transform="translate(436.181641 0)"/>
      <use xlink:href="#TimesNewRomanPSMT-76" transform="translate(463.964844 0)"/>
      <use xlink:href="#TimesNewRomanPSMT-65" transform="translate(513.964844 0)"/>
      <use xlink:href="#TimesNewRomanPSMT-20" transform="translate(558.349609 0)"/>
      <use xlink:href="#TimesNewRomanPSMT-52" transform="translate(583.349609 0)"/>
      <use xlink:href="#TimesNewRomanPSMT-61" transform="translate(650.048828 0)"/>
      <use xlink:href="#TimesNewRomanPSMT-74" transform="translate(694.433594 0)"/>
      <use xlink:href="#TimesNewRomanPSMT-65" transform="translate(722.216797 0)"/>
     </g>
    </g>
   </g>
   <g id="matplotlib.axis_2">
    <g id="ytick_1">
     <g id="line2d_7">
      <path d="M 69.315313 642.24 
L 962.115312 642.24 
" clip-path="url(#p9908739fb9)" style="fill: none; stroke: #ffffff; stroke-linecap: round"/>
     </g>
     <g id="text_8">
      <!-- 0.0 -->
      <g style="fill: #262626" transform="translate(34.815313 649.18375) scale(0.2 -0.2)">
       <use xlink:href="#TimesNewRomanPSMT-30"/>
       <use xlink:href="#TimesNewRomanPSMT-2e" transform="translate(50 0)"/>
       <use xlink:href="#TimesNewRomanPSMT-30" transform="translate(75 0)"/>
      </g>
     </g>
    </g>
    <g id="ytick_2">
     <g id="line2d_8">
      <path d="M 69.315313 521.28 
L 962.115312 521.28 
" clip-path="url(#p9908739fb9)" style="fill: none; stroke: #ffffff; stroke-linecap: round"/>
     </g>
     <g id="text_9">
      <!-- 0.2 -->
      <g style="fill: #262626" transform="translate(34.815313 528.22375) scale(0.2 -0.2)">
       <use xlink:href="#TimesNewRomanPSMT-30"/>
       <use xlink:href="#TimesNewRomanPSMT-2e" transform="translate(50 0)"/>
       <use xlink:href="#TimesNewRomanPSMT-32" transform="translate(75 0)"/>
      </g>
     </g>
    </g>
    <g id="ytick_3">
     <g id="line2d_9">
      <path d="M 69.315313 400.32 
L 962.115312 400.32 
" clip-path="url(#p9908739fb9)" style="fill: none; stroke: #ffffff; stroke-linecap: round"/>
     </g>
     <g id="text_10">
      <!-- 0.4 -->
      <g style="fill: #262626" transform="translate(34.815313 407.26375) scale(0.2 -0.2)">
       <use xlink:href="#TimesNewRomanPSMT-30"/>
       <use xlink:href="#TimesNewRomanPSMT-2e" transform="translate(50 0)"/>
       <use xlink:href="#TimesNewRomanPSMT-34" transform="translate(75 0)"/>
      </g>
     </g>
    </g>
    <g id="ytick_4">
     <g id="line2d_10">
      <path d="M 69.315313 279.36 
L 962.115312 279.36 
" clip-path="url(#p9908739fb9)" style="fill: none; stroke: #ffffff; stroke-linecap: round"/>
     </g>
     <g id="text_11">
      <!-- 0.6 -->
      <g style="fill: #262626" transform="translate(34.815313 286.30375) scale(0.2 -0.2)">
       <use xlink:href="#TimesNewRomanPSMT-30"/>
       <use xlink:href="#TimesNewRomanPSMT-2e" transform="translate(50 0)"/>
       <use xlink:href="#TimesNewRomanPSMT-36" transform="translate(75 0)"/>
      </g>
     </g>
    </g>
    <g id="ytick_5">
     <g id="line2d_11">
      <path d="M 69.315313 158.4 
L 962.115312 158.4 
" clip-path="url(#p9908739fb9)" style="fill: none; stroke: #ffffff; stroke-linecap: round"/>
     </g>
     <g id="text_12">
      <!-- 0.8 -->
      <g style="fill: #262626" transform="translate(34.815313 165.34375) scale(0.2 -0.2)">
       <use xlink:href="#TimesNewRomanPSMT-30"/>
       <use xlink:href="#TimesNewRomanPSMT-2e" transform="translate(50 0)"/>
       <use xlink:href="#TimesNewRomanPSMT-38" transform="translate(75 0)"/>
      </g>
     </g>
    </g>
    <g id="ytick_6">
     <g id="line2d_12">
      <path d="M 69.315313 37.44 
L 962.115312 37.44 
" clip-path="url(#p9908739fb9)" style="fill: none; stroke: #ffffff; stroke-linecap: round"/>
     </g>
     <g id="text_13">
      <!-- 1.0 -->
      <g style="fill: #262626" transform="translate(34.815313 44.38375) scale(0.2 -0.2)">
       <use xlink:href="#TimesNewRomanPSMT-31"/>
       <use xlink:href="#TimesNewRomanPSMT-2e" transform="translate(50 0)"/>
       <use xlink:href="#TimesNewRomanPSMT-30" transform="translate(75 0)"/>
      </g>
     </g>
    </g>
    <g id="text_14">
     <!-- True Positive Rate -->
     <g style="fill: #262626" transform="translate(25.25375 436.143594) rotate(-90) scale(0.26 -0.26)">
      <defs>
       <path id="TimesNewRomanPSMT-54" d="M 3703 4238 
L 3750 3244 
L 3631 3244 
Q 3597 3506 3538 3619 
Q 3441 3800 3280 3886 
Q 3119 3972 2856 3972 
L 2259 3972 
L 2259 734 
Q 2259 344 2344 247 
Q 2463 116 2709 116 
L 2856 116 
L 2856 0 
L 1059 0 
L 1059 116 
L 1209 116 
Q 1478 116 1591 278 
Q 1659 378 1659 734 
L 1659 3972 
L 1150 3972 
Q 853 3972 728 3928 
Q 566 3869 450 3700 
Q 334 3531 313 3244 
L 194 3244 
L 244 4238 
L 3703 4238 
z
" transform="scale(0.015625)"/>
       <path id="TimesNewRomanPSMT-72" d="M 1038 2947 
L 1038 2303 
Q 1397 2947 1775 2947 
Q 1947 2947 2059 2842 
Q 2172 2738 2172 2600 
Q 2172 2478 2090 2393 
Q 2009 2309 1897 2309 
Q 1788 2309 1652 2417 
Q 1516 2525 1450 2525 
Q 1394 2525 1328 2463 
Q 1188 2334 1038 2041 
L 1038 669 
Q 1038 431 1097 309 
Q 1138 225 1241 169 
Q 1344 113 1538 113 
L 1538 0 
L 72 0 
L 72 113 
Q 291 113 397 181 
Q 475 231 506 341 
Q 522 394 522 644 
L 522 1753 
Q 522 2253 501 2348 
Q 481 2444 426 2487 
Q 372 2531 291 2531 
Q 194 2531 72 2484 
L 41 2597 
L 906 2947 
L 1038 2947 
z
" transform="scale(0.015625)"/>
       <path id="TimesNewRomanPSMT-75" d="M 2709 2863 
L 2709 1128 
Q 2709 631 2732 520 
Q 2756 409 2807 365 
Q 2859 322 2928 322 
Q 3025 322 3147 375 
L 3191 266 
L 2334 -88 
L 2194 -88 
L 2194 519 
Q 1825 119 1631 15 
Q 1438 -88 1222 -88 
Q 981 -88 804 51 
Q 628 191 559 409 
Q 491 628 491 1028 
L 491 2306 
Q 491 2509 447 2587 
Q 403 2666 317 2708 
Q 231 2750 6 2747 
L 6 2863 
L 1009 2863 
L 1009 947 
Q 1009 547 1148 422 
Q 1288 297 1484 297 
Q 1619 297 1789 381 
Q 1959 466 2194 703 
L 2194 2325 
Q 2194 2569 2105 2655 
Q 2016 2741 1734 2747 
L 1734 2863 
L 2709 2863 
z
" transform="scale(0.015625)"/>
      </defs>
      <use xlink:href="#TimesNewRomanPSMT-54"/>
      <use xlink:href="#TimesNewRomanPSMT-72" transform="translate(57.583984 0)"/>
      <use xlink:href="#TimesNewRomanPSMT-75" transform="translate(90.884766 0)"/>
      <use xlink:href="#TimesNewRomanPSMT-65" transform="translate(140.884766 0)"/>
      <use xlink:href="#TimesNewRomanPSMT-20" transform="translate(185.269531 0)"/>
      <use xlink:href="#TimesNewRomanPSMT-50" transform="translate(210.269531 0)"/>
      <use xlink:href="#TimesNewRomanPSMT-6f" transform="translate(265.884766 0)"/>
      <use xlink:href="#TimesNewRomanPSMT-73" transform="translate(315.884766 0)"/>
      <use xlink:href="#TimesNewRomanPSMT-69" transform="translate(354.800781 0)"/>
      <use xlink:href="#TimesNewRomanPSMT-74" transform="translate(382.583984 0)"/>
      <use xlink:href="#TimesNewRomanPSMT-69" transform="translate(410.367188 0)"/>
      <use xlink:href="#TimesNewRomanPSMT-76" transform="translate(438.150391 0)"/>
      <use xlink:href="#TimesNewRomanPSMT-65" transform="translate(488.150391 0)"/>
      <use xlink:href="#TimesNewRomanPSMT-20" transform="translate(532.535156 0)"/>
      <use xlink:href="#TimesNewRomanPSMT-52" transform="translate(557.535156 0)"/>
      <use xlink:href="#TimesNewRomanPSMT-61" transform="translate(624.234375 0)"/>
      <use xlink:href="#TimesNewRomanPSMT-74" transform="translate(668.619141 0)"/>
      <use xlink:href="#TimesNewRomanPSMT-65" transform="translate(696.402344 0)"/>
     </g>
    </g>
   </g>
   <g id="line2d_13">
    <path d="M 109.897131 642.24 
L 109.897131 614.749091 
L 109.897131 587.258182 
L 145.573454 587.258182 
L 145.573454 559.767273 
L 190.168859 559.767273 
L 190.168859 532.276364 
L 216.926102 532.276364 
L 216.926102 477.294545 
L 225.845183 477.294545 
L 225.845183 422.312727 
L 234.764264 422.312727 
L 234.764264 394.821818 
L 288.278749 394.821818 
L 288.278749 367.330909 
L 297.19783 367.330909 
L 297.19783 257.367273 
L 332.874154 257.367273 
L 332.874154 229.876364 
L 395.30772 229.876364 
L 395.30772 202.385455 
L 422.064963 202.385455 
L 422.064963 174.894545 
L 448.822206 174.894545 
L 448.822206 147.403636 
L 484.498529 147.403636 
L 484.498529 119.912727 
L 520.174853 119.912727 
L 520.174853 64.930909 
L 743.151876 64.930909 
L 743.151876 37.44 
L 921.533494 37.44 
" clip-path="url(#p9908739fb9)" style="fill: none; stroke: #4c72b0; stroke-width: 2.5; stroke-linecap: round"/>
   </g>
   <g id="line2d_14">
    <path d="M 109.897131 642.24 
L 127.735293 642.24 
L 127.735293 587.258182 
L 136.654373 587.258182 
L 172.330697 587.258182 
L 199.08794 532.276364 
L 225.845183 532.276364 
L 234.764264 449.803636 
L 252.602425 394.821818 
L 350.712315 202.385455 
L 386.388639 147.403636 
L 502.336691 147.403636 
L 752.070957 92.421818 
L 832.342685 37.44 
L 921.533494 37.44 
" clip-path="url(#p9908739fb9)" style="fill: none; stroke: #dd8452; stroke-width: 2.5; stroke-linecap: round"/>
   </g>
   <g id="line2d_15">
    <path d="M 109.897131 642.24 
L 118.816212 642.24 
L 136.654373 587.258182 
L 145.573454 532.276364 
L 145.573454 504.785455 
L 154.492535 504.785455 
L 190.168859 477.294545 
L 225.845183 477.294545 
L 243.683344 477.294545 
L 243.683344 449.803636 
L 261.521506 449.803636 
L 279.359668 449.803636 
L 288.278749 422.312727 
L 297.19783 422.312727 
L 297.19783 394.821818 
L 315.035992 339.84 
L 332.874154 339.84 
L 332.874154 312.349091 
L 341.793235 312.349091 
L 359.631396 284.858182 
L 359.631396 257.367273 
L 377.469558 257.367273 
L 395.30772 257.367273 
L 413.145882 257.367273 
L 448.822206 257.367273 
L 448.822206 229.876364 
L 466.660367 229.876364 
L 466.660367 202.385455 
L 529.093934 202.385455 
L 529.093934 174.894545 
L 546.932096 174.894545 
L 555.851177 147.403636 
L 627.203824 147.403636 
L 627.203824 119.912727 
L 636.122905 119.912727 
L 645.041986 92.421818 
L 662.880148 92.421818 
L 698.556471 92.421818 
L 716.394633 92.421818 
L 743.151876 92.421818 
L 743.151876 64.930909 
L 769.909119 64.930909 
L 769.909119 37.44 
L 778.8282 37.44 
L 796.666361 37.44 
L 832.342685 37.44 
L 850.180847 37.44 
L 921.533494 37.44 
" clip-path="url(#p9908739fb9)" style="fill: none; stroke: #55a868; stroke-width: 2.5; stroke-linecap: round"/>
   </g>
   <g id="line2d_16">
    <path d="M 109.897131 642.24 
L 109.897131 614.749091 
L 109.897131 559.767273 
L 127.735293 559.767273 
L 127.735293 532.276364 
L 261.521506 532.276364 
L 261.521506 504.785455 
L 270.440587 504.785455 
L 270.440587 477.294545 
L 288.278749 477.294545 
L 288.278749 367.330909 
L 306.116911 367.330909 
L 315.035992 339.84 
L 315.035992 312.349091 
L 395.30772 312.349091 
L 395.30772 284.858182 
L 439.903125 284.858182 
L 439.903125 229.876364 
L 457.741287 229.876364 
L 511.255772 229.876364 
L 511.255772 202.385455 
L 529.093934 202.385455 
L 529.093934 174.894545 
L 546.932096 174.894545 
L 555.851177 174.894545 
L 555.851177 147.403636 
L 564.770258 147.403636 
L 582.608419 147.403636 
L 609.365662 147.403636 
L 609.365662 119.912727 
L 618.284743 92.421818 
L 769.909119 92.421818 
L 769.909119 64.930909 
L 832.342685 64.930909 
L 832.342685 37.44 
L 921.533494 37.44 
" clip-path="url(#p9908739fb9)" style="fill: none; stroke: #c44e52; stroke-width: 2.5; stroke-linecap: round"/>
   </g>
   <g id="line2d_17">
    <path d="M 109.897131 642.24 
L 118.816212 642.24 
L 190.168859 642.24 
L 190.168859 614.749091 
L 225.845183 614.749091 
L 225.845183 559.767273 
L 243.683344 559.767273 
L 243.683344 532.276364 
L 252.602425 532.276364 
L 252.602425 504.785455 
L 270.440587 504.785455 
L 270.440587 394.821818 
L 279.359668 394.821818 
L 279.359668 367.330909 
L 288.278749 367.330909 
L 288.278749 312.349091 
L 306.116911 312.349091 
L 306.116911 284.858182 
L 368.550477 284.858182 
L 368.550477 257.367273 
L 422.064963 257.367273 
L 422.064963 229.876364 
L 430.984044 229.876364 
L 430.984044 202.385455 
L 466.660367 202.385455 
L 466.660367 174.894545 
L 493.41761 174.894545 
L 493.41761 147.403636 
L 502.336691 147.403636 
L 502.336691 119.912727 
L 725.313714 119.912727 
L 725.313714 92.421818 
L 832.342685 92.421818 
L 832.342685 64.930909 
L 876.93809 64.930909 
L 876.93809 37.44 
L 921.533494 37.44 
" clip-path="url(#p9908739fb9)" style="fill: none; stroke: #8172b3; stroke-width: 2.5; stroke-linecap: round"/>
   </g>
   <g id="line2d_18">
    <path d="M 109.897131 642.24 
L 109.897131 614.749091 
L 127.735293 614.749091 
L 127.735293 587.258182 
L 163.411616 587.258182 
L 163.411616 559.767273 
L 199.08794 559.767273 
L 199.08794 504.785455 
L 279.359668 504.785455 
L 279.359668 477.294545 
L 288.278749 477.294545 
L 288.278749 449.803636 
L 297.19783 449.803636 
L 297.19783 422.312727 
L 341.793235 422.312727 
L 341.793235 394.821818 
L 350.712315 394.821818 
L 350.712315 367.330909 
L 386.388639 367.330909 
L 386.388639 339.84 
L 422.064963 339.84 
L 422.064963 312.349091 
L 564.770258 312.349091 
L 564.770258 284.858182 
L 573.689338 284.858182 
L 573.689338 257.367273 
L 591.5275 257.367273 
L 591.5275 202.385455 
L 600.446581 202.385455 
L 600.446581 174.894545 
L 618.284743 174.894545 
L 618.284743 147.403636 
L 671.799229 147.403636 
L 671.799229 64.930909 
L 769.909119 64.930909 
L 769.909119 37.44 
L 921.533494 37.44 
" clip-path="url(#p9908739fb9)" style="fill: none; stroke: #937860; stroke-width: 2.5; stroke-linecap: round"/>
   </g>
   <g id="line2d_19">
    <path d="M 109.897131 642.24 
L 921.533494 37.44 
" clip-path="url(#p9908739fb9)" style="fill: none; stroke-dasharray: 1.5,2.475; stroke-dashoffset: 0; stroke: #1a1a1a; stroke-width: 1.5"/>
   </g>
   <g id="patch_3">
    <path d="M 69.315313 672.48 
L 69.315313 7.2 
" style="fill: none; stroke: #ffffff; stroke-width: 1.25; stroke-linejoin: miter; stroke-linecap: square"/>
   </g>
   <g id="patch_4">
    <path d="M 962.115312 672.48 
L 962.115312 7.2 
" style="fill: none; stroke: #ffffff; stroke-width: 1.25; stroke-linejoin: miter; stroke-linecap: square"/>
   </g>
   <g id="patch_5">
    <path d="M 69.315313 672.48 
L 962.115312 672.48 
" style="fill: none; stroke: #ffffff; stroke-width: 1.25; stroke-linejoin: miter; stroke-linecap: square"/>
   </g>
   <g id="patch_6">
    <path d="M 69.315313 7.2 
L 962.115312 7.2 
" style="fill: none; stroke: #ffffff; stroke-width: 1.25; stroke-linejoin: miter; stroke-linecap: square"/>
   </g>
   <g id="legend_1">
    <g id="patch_7">
     <path d="M 662.255312 661.48 
L 946.715312 661.48 
Q 951.115312 661.48 951.115312 657.08 
L 951.115312 472.603125 
Q 951.115312 468.203125 946.715312 468.203125 
L 662.255312 468.203125 
Q 657.855312 468.203125 657.855312 472.603125 
L 657.855312 657.08 
Q 657.855312 661.48 662.255312 661.48 
z
" style="fill: #eaeaf2; opacity: 0.8; stroke: #cccccc; stroke-linejoin: miter"/>
    </g>
    <g id="line2d_20">
     <path d="M 666.655312 484.703125 
L 688.655312 484.703125 
L 710.655312 484.703125 
" style="fill: none; stroke: #4c72b0; stroke-width: 2.5; stroke-linecap: round"/>
    </g>
    <g id="text_15">
     <!-- MLP (AUC = 0.742) -->
     <g style="fill: #262626" transform="translate(728.255312 492.403125) scale(0.22 -0.22)">
      <defs>
       <path id="TimesNewRomanPSMT-4d" d="M 2619 0 
L 981 3566 
L 981 734 
Q 981 344 1066 247 
Q 1181 116 1431 116 
L 1581 116 
L 1581 0 
L 106 0 
L 106 116 
L 256 116 
Q 525 116 638 278 
Q 706 378 706 734 
L 706 3503 
Q 706 3784 644 3909 
Q 600 4000 483 4061 
Q 366 4122 106 4122 
L 106 4238 
L 1306 4238 
L 2844 922 
L 4356 4238 
L 5556 4238 
L 5556 4122 
L 5409 4122 
Q 5138 4122 5025 3959 
Q 4956 3859 4956 3503 
L 4956 734 
Q 4956 344 5044 247 
Q 5159 116 5409 116 
L 5556 116 
L 5556 0 
L 3756 0 
L 3756 116 
L 3906 116 
Q 4178 116 4288 278 
Q 4356 378 4356 734 
L 4356 3566 
L 2722 0 
L 2619 0 
z
" transform="scale(0.015625)"/>
       <path id="TimesNewRomanPSMT-4c" d="M 3669 1172 
L 3772 1150 
L 3409 0 
L 128 0 
L 128 116 
L 288 116 
Q 556 116 672 291 
Q 738 391 738 753 
L 738 3488 
Q 738 3884 650 3984 
Q 528 4122 288 4122 
L 128 4122 
L 128 4238 
L 2047 4238 
L 2047 4122 
Q 1709 4125 1573 4059 
Q 1438 3994 1388 3894 
Q 1338 3794 1338 3416 
L 1338 753 
Q 1338 494 1388 397 
Q 1425 331 1503 300 
Q 1581 269 1991 269 
L 2300 269 
Q 2788 269 2984 341 
Q 3181 413 3343 595 
Q 3506 778 3669 1172 
z
" transform="scale(0.015625)"/>
       <path id="TimesNewRomanPSMT-28" d="M 1988 -1253 
L 1988 -1369 
Q 1516 -1131 1200 -813 
Q 750 -359 506 256 
Q 263 872 263 1534 
Q 263 2503 741 3301 
Q 1219 4100 1988 4444 
L 1988 4313 
Q 1603 4100 1356 3731 
Q 1109 3363 987 2797 
Q 866 2231 866 1616 
Q 866 947 969 400 
Q 1050 -31 1165 -292 
Q 1281 -553 1476 -793 
Q 1672 -1034 1988 -1253 
z
" transform="scale(0.015625)"/>
       <path id="TimesNewRomanPSMT-41" d="M 2928 1419 
L 1288 1419 
L 1000 750 
Q 894 503 894 381 
Q 894 284 986 211 
Q 1078 138 1384 116 
L 1384 0 
L 50 0 
L 50 116 
Q 316 163 394 238 
Q 553 388 747 847 
L 2238 4334 
L 2347 4334 
L 3822 809 
Q 4000 384 4145 257 
Q 4291 131 4550 116 
L 4550 0 
L 2878 0 
L 2878 116 
Q 3131 128 3220 200 
Q 3309 272 3309 375 
Q 3309 513 3184 809 
L 2928 1419 
z
M 2841 1650 
L 2122 3363 
L 1384 1650 
L 2841 1650 
z
" transform="scale(0.015625)"/>
       <path id="TimesNewRomanPSMT-55" d="M 3053 4122 
L 3053 4238 
L 4553 4238 
L 4553 4122 
L 4394 4122 
Q 4144 4122 4009 3913 
Q 3944 3816 3944 3463 
L 3944 1744 
Q 3944 1106 3817 754 
Q 3691 403 3320 151 
Q 2950 -100 2313 -100 
Q 1619 -100 1259 140 
Q 900 381 750 788 
Q 650 1066 650 1831 
L 650 3488 
Q 650 3878 542 4000 
Q 434 4122 194 4122 
L 34 4122 
L 34 4238 
L 1866 4238 
L 1866 4122 
L 1703 4122 
Q 1441 4122 1328 3956 
Q 1250 3844 1250 3488 
L 1250 1641 
Q 1250 1394 1295 1075 
Q 1341 756 1459 578 
Q 1578 400 1801 284 
Q 2025 169 2350 169 
Q 2766 169 3094 350 
Q 3422 531 3542 814 
Q 3663 1097 3663 1772 
L 3663 3488 
Q 3663 3884 3575 3984 
Q 3453 4122 3213 4122 
L 3053 4122 
z
" transform="scale(0.015625)"/>
       <path id="TimesNewRomanPSMT-43" d="M 3853 4334 
L 3950 2894 
L 3853 2894 
Q 3659 3541 3300 3825 
Q 2941 4109 2438 4109 
Q 2016 4109 1675 3895 
Q 1334 3681 1139 3212 
Q 944 2744 944 2047 
Q 944 1472 1128 1050 
Q 1313 628 1683 403 
Q 2053 178 2528 178 
Q 2941 178 3256 354 
Q 3572 531 3950 1056 
L 4047 994 
Q 3728 428 3303 165 
Q 2878 -97 2294 -97 
Q 1241 -97 663 684 
Q 231 1266 231 2053 
Q 231 2688 515 3219 
Q 800 3750 1298 4042 
Q 1797 4334 2388 4334 
Q 2847 4334 3294 4109 
Q 3425 4041 3481 4041 
Q 3566 4041 3628 4100 
Q 3709 4184 3744 4334 
L 3853 4334 
z
" transform="scale(0.015625)"/>
       <path id="TimesNewRomanPSMT-3d" d="M 116 2759 
L 3488 2759 
L 3488 2503 
L 116 2503 
L 116 2759 
z
M 116 1741 
L 3488 1741 
L 3488 1484 
L 116 1484 
L 116 1741 
z
" transform="scale(0.015625)"/>
       <path id="TimesNewRomanPSMT-37" d="M 644 4238 
L 2916 4238 
L 2916 4119 
L 1503 -88 
L 1153 -88 
L 2419 3728 
L 1253 3728 
Q 900 3728 750 3644 
Q 488 3500 328 3200 
L 238 3234 
L 644 4238 
z
" transform="scale(0.015625)"/>
       <path id="TimesNewRomanPSMT-29" d="M 144 4313 
L 144 4444 
Q 619 4209 934 3891 
Q 1381 3434 1625 2820 
Q 1869 2206 1869 1541 
Q 1869 572 1392 -226 
Q 916 -1025 144 -1369 
L 144 -1253 
Q 528 -1038 776 -670 
Q 1025 -303 1145 264 
Q 1266 831 1266 1447 
Q 1266 2113 1163 2663 
Q 1084 3094 967 3353 
Q 850 3613 656 3853 
Q 463 4094 144 4313 
z
" transform="scale(0.015625)"/>
      </defs>
      <use xlink:href="#TimesNewRomanPSMT-4d"/>
      <use xlink:href="#TimesNewRomanPSMT-4c" transform="translate(88.916016 0)"/>
      <use xlink:href="#TimesNewRomanPSMT-50" transform="translate(150 0)"/>
      <use xlink:href="#TimesNewRomanPSMT-20" transform="translate(201.865234 0)"/>
      <use xlink:href="#TimesNewRomanPSMT-28" transform="translate(226.865234 0)"/>
      <use xlink:href="#TimesNewRomanPSMT-41" transform="translate(260.166016 0)"/>
      <use xlink:href="#TimesNewRomanPSMT-55" transform="translate(332.382812 0)"/>
      <use xlink:href="#TimesNewRomanPSMT-43" transform="translate(404.599609 0)"/>
      <use xlink:href="#TimesNewRomanPSMT-20" transform="translate(471.298828 0)"/>
      <use xlink:href="#TimesNewRomanPSMT-3d" transform="translate(496.298828 0)"/>
      <use xlink:href="#TimesNewRomanPSMT-20" transform="translate(552.695312 0)"/>
      <use xlink:href="#TimesNewRomanPSMT-30" transform="translate(577.695312 0)"/>
      <use xlink:href="#TimesNewRomanPSMT-2e" transform="translate(627.695312 0)"/>
      <use xlink:href="#TimesNewRomanPSMT-37" transform="translate(652.695312 0)"/>
      <use xlink:href="#TimesNewRomanPSMT-34" transform="translate(702.695312 0)"/>
      <use xlink:href="#TimesNewRomanPSMT-32" transform="translate(752.695312 0)"/>
      <use xlink:href="#TimesNewRomanPSMT-29" transform="translate(802.695312 0)"/>
     </g>
    </g>
    <g id="line2d_21">
     <path d="M 666.655312 515.809062 
L 688.655312 515.809062 
L 710.655312 515.809062 
" style="fill: none; stroke: #dd8452; stroke-width: 2.5; stroke-linecap: round"/>
    </g>
    <g id="text_16">
     <!-- RF (AUC = 0.716) -->
     <g style="fill: #262626" transform="translate(728.255312 523.509062) scale(0.22 -0.22)">
      <use xlink:href="#TimesNewRomanPSMT-52"/>
      <use xlink:href="#TimesNewRomanPSMT-46" transform="translate(66.699219 0)"/>
      <use xlink:href="#TimesNewRomanPSMT-20" transform="translate(122.314453 0)"/>
      <use xlink:href="#TimesNewRomanPSMT-28" transform="translate(147.314453 0)"/>
      <use xlink:href="#TimesNewRomanPSMT-41" transform="translate(180.615234 0)"/>
      <use xlink:href="#TimesNewRomanPSMT-55" transform="translate(252.832031 0)"/>
      <use xlink:href="#TimesNewRomanPSMT-43" transform="translate(325.048828 0)"/>
      <use xlink:href="#TimesNewRomanPSMT-20" transform="translate(391.748047 0)"/>
      <use xlink:href="#TimesNewRomanPSMT-3d" transform="translate(416.748047 0)"/>
      <use xlink:href="#TimesNewRomanPSMT-20" transform="translate(473.144531 0)"/>
      <use xlink:href="#TimesNewRomanPSMT-30" transform="translate(498.144531 0)"/>
      <use xlink:href="#TimesNewRomanPSMT-2e" transform="translate(548.144531 0)"/>
      <use xlink:href="#TimesNewRomanPSMT-37" transform="translate(573.144531 0)"/>
      <use xlink:href="#TimesNewRomanPSMT-31" transform="translate(623.144531 0)"/>
      <use xlink:href="#TimesNewRomanPSMT-36" transform="translate(673.144531 0)"/>
      <use xlink:href="#TimesNewRomanPSMT-29" transform="translate(723.144531 0)"/>
     </g>
    </g>
    <g id="line2d_22">
     <path d="M 666.655312 546.915 
L 688.655312 546.915 
L 710.655312 546.915 
" style="fill: none; stroke: #55a868; stroke-width: 2.5; stroke-linecap: round"/>
    </g>
    <g id="text_17">
     <!-- GBDT (AUC = 0.681) -->
     <g style="fill: #262626" transform="translate(728.255312 554.615) scale(0.22 -0.22)">
      <defs>
       <path id="TimesNewRomanPSMT-47" d="M 3928 4334 
L 4038 2997 
L 3928 2997 
Q 3763 3497 3500 3750 
Q 3122 4116 2528 4116 
Q 1719 4116 1297 3475 
Q 944 2934 944 2188 
Q 944 1581 1178 1081 
Q 1413 581 1792 348 
Q 2172 116 2572 116 
Q 2806 116 3025 175 
Q 3244 234 3447 350 
L 3447 1575 
Q 3447 1894 3398 1992 
Q 3350 2091 3248 2142 
Q 3147 2194 2891 2194 
L 2891 2313 
L 4531 2313 
L 4531 2194 
L 4453 2194 
Q 4209 2194 4119 2031 
Q 4056 1916 4056 1575 
L 4056 278 
Q 3697 84 3347 -6 
Q 2997 -97 2569 -97 
Q 1341 -97 703 691 
Q 225 1281 225 2053 
Q 225 2613 494 3125 
Q 813 3734 1369 4063 
Q 1834 4334 2469 4334 
Q 2700 4334 2889 4296 
Q 3078 4259 3425 4131 
Q 3600 4066 3659 4066 
Q 3719 4066 3761 4120 
Q 3803 4175 3813 4334 
L 3928 4334 
z
" transform="scale(0.015625)"/>
       <path id="TimesNewRomanPSMT-42" d="M 2956 2163 
Q 3397 2069 3616 1863 
Q 3919 1575 3919 1159 
Q 3919 844 3719 555 
Q 3519 266 3170 133 
Q 2822 0 2106 0 
L 106 0 
L 106 116 
L 266 116 
Q 531 116 647 284 
Q 719 394 719 750 
L 719 3488 
Q 719 3881 628 3984 
Q 506 4122 266 4122 
L 106 4122 
L 106 4238 
L 1938 4238 
Q 2450 4238 2759 4163 
Q 3228 4050 3475 3764 
Q 3722 3478 3722 3106 
Q 3722 2788 3528 2536 
Q 3334 2284 2956 2163 
z
M 1319 2331 
Q 1434 2309 1582 2298 
Q 1731 2288 1909 2288 
Q 2366 2288 2595 2386 
Q 2825 2484 2947 2687 
Q 3069 2891 3069 3131 
Q 3069 3503 2766 3765 
Q 2463 4028 1881 4028 
Q 1569 4028 1319 3959 
L 1319 2331 
z
M 1319 306 
Q 1681 222 2034 222 
Q 2600 222 2897 476 
Q 3194 731 3194 1106 
Q 3194 1353 3059 1581 
Q 2925 1809 2622 1940 
Q 2319 2072 1872 2072 
Q 1678 2072 1540 2065 
Q 1403 2059 1319 2044 
L 1319 306 
z
" transform="scale(0.015625)"/>
       <path id="TimesNewRomanPSMT-44" d="M 109 0 
L 109 116 
L 269 116 
Q 538 116 650 288 
Q 719 391 719 750 
L 719 3488 
Q 719 3884 631 3984 
Q 509 4122 269 4122 
L 109 4122 
L 109 4238 
L 1834 4238 
Q 2784 4238 3279 4022 
Q 3775 3806 4076 3303 
Q 4378 2800 4378 2141 
Q 4378 1256 3841 663 
Q 3238 0 2003 0 
L 109 0 
z
M 1319 306 
Q 1716 219 1984 219 
Q 2709 219 3187 728 
Q 3666 1238 3666 2109 
Q 3666 2988 3187 3494 
Q 2709 4000 1959 4000 
Q 1678 4000 1319 3909 
L 1319 306 
z
" transform="scale(0.015625)"/>
      </defs>
      <use xlink:href="#TimesNewRomanPSMT-47"/>
      <use xlink:href="#TimesNewRomanPSMT-42" transform="translate(72.216797 0)"/>
      <use xlink:href="#TimesNewRomanPSMT-44" transform="translate(138.916016 0)"/>
      <use xlink:href="#TimesNewRomanPSMT-54" transform="translate(211.132812 0)"/>
      <use xlink:href="#TimesNewRomanPSMT-20" transform="translate(270.466797 0)"/>
      <use xlink:href="#TimesNewRomanPSMT-28" transform="translate(295.466797 0)"/>
      <use xlink:href="#TimesNewRomanPSMT-41" transform="translate(328.767578 0)"/>
      <use xlink:href="#TimesNewRomanPSMT-55" transform="translate(400.984375 0)"/>
      <use xlink:href="#TimesNewRomanPSMT-43" transform="translate(473.201172 0)"/>
      <use xlink:href="#TimesNewRomanPSMT-20" transform="translate(539.900391 0)"/>
      <use xlink:href="#TimesNewRomanPSMT-3d" transform="translate(564.900391 0)"/>
      <use xlink:href="#TimesNewRomanPSMT-20" transform="translate(621.296875 0)"/>
      <use xlink:href="#TimesNewRomanPSMT-30" transform="translate(646.296875 0)"/>
      <use xlink:href="#TimesNewRomanPSMT-2e" transform="translate(696.296875 0)"/>
      <use xlink:href="#TimesNewRomanPSMT-36" transform="translate(721.296875 0)"/>
      <use xlink:href="#TimesNewRomanPSMT-38" transform="translate(771.296875 0)"/>
      <use xlink:href="#TimesNewRomanPSMT-31" transform="translate(821.296875 0)"/>
      <use xlink:href="#TimesNewRomanPSMT-29" transform="translate(871.296875 0)"/>
     </g>
    </g>
    <g id="line2d_23">
     <path d="M 666.655312 578.020937 
L 688.655312 578.020937 
L 710.655312 578.020937 
" style="fill: none; stroke: #c44e52; stroke-width: 2.5; stroke-linecap: round"/>
    </g>
    <g id="text_18">
     <!-- Bagging (AUC = 0.661) -->
     <g style="fill: #262626" transform="translate(728.255312 585.720937) scale(0.22 -0.22)">
      <defs>
       <path id="TimesNewRomanPSMT-67" d="M 966 1044 
Q 703 1172 562 1401 
Q 422 1631 422 1909 
Q 422 2334 742 2640 
Q 1063 2947 1563 2947 
Q 1972 2947 2272 2747 
L 2878 2747 
Q 3013 2747 3034 2739 
Q 3056 2731 3066 2713 
Q 3084 2684 3084 2613 
Q 3084 2531 3069 2500 
Q 3059 2484 3036 2475 
Q 3013 2466 2878 2466 
L 2506 2466 
Q 2681 2241 2681 1891 
Q 2681 1491 2375 1206 
Q 2069 922 1553 922 
Q 1341 922 1119 984 
Q 981 866 932 777 
Q 884 688 884 625 
Q 884 572 936 522 
Q 988 472 1138 450 
Q 1225 438 1575 428 
Q 2219 413 2409 384 
Q 2700 344 2873 169 
Q 3047 -6 3047 -263 
Q 3047 -616 2716 -925 
Q 2228 -1381 1444 -1381 
Q 841 -1381 425 -1109 
Q 191 -953 191 -784 
Q 191 -709 225 -634 
Q 278 -519 444 -313 
Q 466 -284 763 25 
Q 600 122 533 198 
Q 466 275 466 372 
Q 466 481 555 628 
Q 644 775 966 1044 
z
M 1509 2797 
Q 1278 2797 1122 2612 
Q 966 2428 966 2047 
Q 966 1553 1178 1281 
Q 1341 1075 1591 1075 
Q 1828 1075 1981 1253 
Q 2134 1431 2134 1813 
Q 2134 2309 1919 2591 
Q 1759 2797 1509 2797 
z
M 934 0 
Q 788 -159 713 -296 
Q 638 -434 638 -550 
Q 638 -700 819 -813 
Q 1131 -1006 1722 -1006 
Q 2284 -1006 2551 -807 
Q 2819 -609 2819 -384 
Q 2819 -222 2659 -153 
Q 2497 -84 2016 -72 
Q 1313 -53 934 0 
z
" transform="scale(0.015625)"/>
       <path id="TimesNewRomanPSMT-6e" d="M 1034 2341 
Q 1538 2947 1994 2947 
Q 2228 2947 2397 2830 
Q 2566 2713 2666 2444 
Q 2734 2256 2734 1869 
L 2734 647 
Q 2734 375 2778 278 
Q 2813 200 2889 156 
Q 2966 113 3172 113 
L 3172 0 
L 1756 0 
L 1756 113 
L 1816 113 
Q 2016 113 2095 173 
Q 2175 234 2206 353 
Q 2219 400 2219 647 
L 2219 1819 
Q 2219 2209 2117 2386 
Q 2016 2563 1775 2563 
Q 1403 2563 1034 2156 
L 1034 647 
Q 1034 356 1069 288 
Q 1113 197 1189 155 
Q 1266 113 1500 113 
L 1500 0 
L 84 0 
L 84 113 
L 147 113 
Q 366 113 442 223 
Q 519 334 519 647 
L 519 1709 
Q 519 2225 495 2337 
Q 472 2450 423 2490 
Q 375 2531 294 2531 
Q 206 2531 84 2484 
L 38 2597 
L 900 2947 
L 1034 2947 
L 1034 2341 
z
" transform="scale(0.015625)"/>
      </defs>
      <use xlink:href="#TimesNewRomanPSMT-42"/>
      <use xlink:href="#TimesNewRomanPSMT-61" transform="translate(66.699219 0)"/>
      <use xlink:href="#TimesNewRomanPSMT-67" transform="translate(111.083984 0)"/>
      <use xlink:href="#TimesNewRomanPSMT-67" transform="translate(161.083984 0)"/>
      <use xlink:href="#TimesNewRomanPSMT-69" transform="translate(211.083984 0)"/>
      <use xlink:href="#TimesNewRomanPSMT-6e" transform="translate(238.867188 0)"/>
      <use xlink:href="#TimesNewRomanPSMT-67" transform="translate(288.867188 0)"/>
      <use xlink:href="#TimesNewRomanPSMT-20" transform="translate(338.867188 0)"/>
      <use xlink:href="#TimesNewRomanPSMT-28" transform="translate(363.867188 0)"/>
      <use xlink:href="#TimesNewRomanPSMT-41" transform="translate(397.167969 0)"/>
      <use xlink:href="#TimesNewRomanPSMT-55" transform="translate(469.384766 0)"/>
      <use xlink:href="#TimesNewRomanPSMT-43" transform="translate(541.601562 0)"/>
      <use xlink:href="#TimesNewRomanPSMT-20" transform="translate(608.300781 0)"/>
      <use xlink:href="#TimesNewRomanPSMT-3d" transform="translate(633.300781 0)"/>
      <use xlink:href="#TimesNewRomanPSMT-20" transform="translate(689.697266 0)"/>
      <use xlink:href="#TimesNewRomanPSMT-30" transform="translate(714.697266 0)"/>
      <use xlink:href="#TimesNewRomanPSMT-2e" transform="translate(764.697266 0)"/>
      <use xlink:href="#TimesNewRomanPSMT-36" transform="translate(789.697266 0)"/>
      <use xlink:href="#TimesNewRomanPSMT-36" transform="translate(839.697266 0)"/>
      <use xlink:href="#TimesNewRomanPSMT-31" transform="translate(889.697266 0)"/>
      <use xlink:href="#TimesNewRomanPSMT-29" transform="translate(939.697266 0)"/>
     </g>
    </g>
    <g id="line2d_24">
     <path d="M 666.655312 609.168125 
L 688.655312 609.168125 
L 710.655312 609.168125 
" style="fill: none; stroke: #8172b3; stroke-width: 2.5; stroke-linecap: round"/>
    </g>
    <g id="text_19">
     <!-- XGB (AUC = 0.659) -->
     <g style="fill: #262626" transform="translate(728.255312 616.868125) scale(0.22 -0.22)">
      <defs>
       <path id="TimesNewRomanPSMT-58" d="M 2613 2347 
L 3522 991 
Q 3900 428 4083 279 
Q 4266 131 4547 116 
L 4547 0 
L 2728 0 
L 2728 116 
Q 2909 119 2997 153 
Q 3063 181 3105 239 
Q 3147 297 3147 356 
Q 3147 428 3119 500 
Q 3097 553 2947 775 
L 2228 1863 
L 1341 725 
Q 1200 544 1172 483 
Q 1144 422 1144 356 
Q 1144 256 1228 190 
Q 1313 125 1550 116 
L 1550 0 
L 47 0 
L 47 116 
Q 206 131 322 181 
Q 516 263 691 400 
Q 866 538 1091 822 
L 2091 2084 
L 1256 3306 
Q 916 3803 678 3958 
Q 441 4113 131 4122 
L 131 4238 
L 2091 4238 
L 2091 4122 
Q 1841 4113 1748 4041 
Q 1656 3969 1656 3881 
Q 1656 3766 1806 3544 
L 2456 2572 
L 3209 3525 
Q 3341 3694 3370 3756 
Q 3400 3819 3400 3884 
Q 3400 3950 3363 4000 
Q 3316 4066 3244 4092 
Q 3172 4119 2947 4122 
L 2947 4238 
L 4450 4238 
L 4450 4122 
Q 4272 4113 4159 4066 
Q 3991 3994 3850 3872 
Q 3709 3750 3453 3422 
L 2613 2347 
z
" transform="scale(0.015625)"/>
       <path id="TimesNewRomanPSMT-35" d="M 2778 4238 
L 2534 3706 
L 1259 3706 
L 981 3138 
Q 1809 3016 2294 2522 
Q 2709 2097 2709 1522 
Q 2709 1188 2573 903 
Q 2438 619 2231 419 
Q 2025 219 1772 97 
Q 1413 -75 1034 -75 
Q 653 -75 479 54 
Q 306 184 306 341 
Q 306 428 378 495 
Q 450 563 559 563 
Q 641 563 702 538 
Q 763 513 909 409 
Q 1144 247 1384 247 
Q 1750 247 2026 523 
Q 2303 800 2303 1197 
Q 2303 1581 2056 1914 
Q 1809 2247 1375 2428 
Q 1034 2569 447 2591 
L 1259 4238 
L 2778 4238 
z
" transform="scale(0.015625)"/>
       <path id="TimesNewRomanPSMT-39" d="M 338 -88 
L 338 28 
Q 744 34 1094 217 
Q 1444 400 1770 856 
Q 2097 1313 2225 1859 
Q 1734 1544 1338 1544 
Q 891 1544 572 1889 
Q 253 2234 253 2806 
Q 253 3363 572 3797 
Q 956 4325 1575 4325 
Q 2097 4325 2469 3894 
Q 2925 3359 2925 2575 
Q 2925 1869 2578 1258 
Q 2231 647 1613 244 
Q 1109 -88 516 -88 
L 338 -88 
z
M 2275 2091 
Q 2331 2497 2331 2741 
Q 2331 3044 2228 3395 
Q 2125 3747 1936 3934 
Q 1747 4122 1506 4122 
Q 1228 4122 1018 3872 
Q 809 3622 809 3128 
Q 809 2469 1088 2097 
Q 1291 1828 1588 1828 
Q 1731 1828 1928 1897 
Q 2125 1966 2275 2091 
z
" transform="scale(0.015625)"/>
      </defs>
      <use xlink:href="#TimesNewRomanPSMT-58"/>
      <use xlink:href="#TimesNewRomanPSMT-47" transform="translate(72.216797 0)"/>
      <use xlink:href="#TimesNewRomanPSMT-42" transform="translate(144.433594 0)"/>
      <use xlink:href="#TimesNewRomanPSMT-20" transform="translate(211.132812 0)"/>
      <use xlink:href="#TimesNewRomanPSMT-28" transform="translate(236.132812 0)"/>
      <use xlink:href="#TimesNewRomanPSMT-41" transform="translate(269.433594 0)"/>
      <use xlink:href="#TimesNewRomanPSMT-55" transform="translate(341.650391 0)"/>
      <use xlink:href="#TimesNewRomanPSMT-43" transform="translate(413.867188 0)"/>
      <use xlink:href="#TimesNewRomanPSMT-20" transform="translate(480.566406 0)"/>
      <use xlink:href="#TimesNewRomanPSMT-3d" transform="translate(505.566406 0)"/>
      <use xlink:href="#TimesNewRomanPSMT-20" transform="translate(561.962891 0)"/>
      <use xlink:href="#TimesNewRomanPSMT-30" transform="translate(586.962891 0)"/>
      <use xlink:href="#TimesNewRomanPSMT-2e" transform="translate(636.962891 0)"/>
      <use xlink:href="#TimesNewRomanPSMT-36" transform="translate(661.962891 0)"/>
      <use xlink:href="#TimesNewRomanPSMT-35" transform="translate(711.962891 0)"/>
      <use xlink:href="#TimesNewRomanPSMT-39" transform="translate(761.962891 0)"/>
      <use xlink:href="#TimesNewRomanPSMT-29" transform="translate(811.962891 0)"/>
     </g>
    </g>
    <g id="line2d_25">
     <path d="M 666.655312 640.274062 
L 688.655312 640.274062 
L 710.655312 640.274062 
" style="fill: none; stroke: #937860; stroke-width: 2.5; stroke-linecap: round"/>
    </g>
    <g id="text_20">
     <!-- LR (AUC = 0.604) -->
     <g style="fill: #262626" transform="translate(728.255312 647.974062) scale(0.22 -0.22)">
      <use xlink:href="#TimesNewRomanPSMT-4c"/>
      <use xlink:href="#TimesNewRomanPSMT-52" transform="translate(61.083984 0)"/>
      <use xlink:href="#TimesNewRomanPSMT-20" transform="translate(127.783203 0)"/>
      <use xlink:href="#TimesNewRomanPSMT-28" transform="translate(152.783203 0)"/>
      <use xlink:href="#TimesNewRomanPSMT-41" transform="translate(186.083984 0)"/>
      <use xlink:href="#TimesNewRomanPSMT-55" transform="translate(258.300781 0)"/>
      <use xlink:href="#TimesNewRomanPSMT-43" transform="translate(330.517578 0)"/>
      <use xlink:href="#TimesNewRomanPSMT-20" transform="translate(397.216797 0)"/>
      <use xlink:href="#TimesNewRomanPSMT-3d" transform="translate(422.216797 0)"/>
      <use xlink:href="#TimesNewRomanPSMT-20" transform="translate(478.613281 0)"/>
      <use xlink:href="#TimesNewRomanPSMT-30" transform="translate(503.613281 0)"/>
      <use xlink:href="#TimesNewRomanPSMT-2e" transform="translate(553.613281 0)"/>
      <use xlink:href="#TimesNewRomanPSMT-36" transform="translate(578.613281 0)"/>
      <use xlink:href="#TimesNewRomanPSMT-30" transform="translate(628.613281 0)"/>
      <use xlink:href="#TimesNewRomanPSMT-34" transform="translate(678.613281 0)"/>
      <use xlink:href="#TimesNewRomanPSMT-29" transform="translate(728.613281 0)"/>
     </g>
    </g>
   </g>
  </g>
 </g>
 <defs>
  <clipPath id="p9908739fb9">
   <rect x="69.315313" y="7.2" width="892.8" height="665.28"/>
  </clipPath>
 </defs>
</svg>
